<mxfile host="app.diagrams.net" modified="2021-07-27T07:48:24.744Z" agent="5.0 (Windows)" etag="yjR20y5Mii33qHmx3Rzh" version="14.9.2" type="github" pages="2">
  <diagram id="C5RBs43oDa-KdzZeNtuy" name="Page-1">
    <mxGraphModel dx="782" dy="696" grid="1" gridSize="10" guides="1" tooltips="1" connect="1" arrows="1" fold="1" page="1" pageScale="1" pageWidth="1169" pageHeight="827" math="0" shadow="0">
      <root>
        <mxCell id="WIyWlLk6GJQsqaUBKTNV-0" />
        <mxCell id="WIyWlLk6GJQsqaUBKTNV-1" parent="WIyWlLk6GJQsqaUBKTNV-0" />
        <mxCell id="5NShUPz_J3u2J9EEHh_j-0" value="&lt;p style=&quot;margin: 0px ; margin-top: 4px ; text-align: center&quot;&gt;&lt;i&gt;&amp;lt;&amp;lt;Interface&amp;gt;&amp;gt;&lt;/i&gt;&lt;br&gt;&lt;b&gt;Shape&lt;/b&gt;&lt;/p&gt;&lt;hr size=&quot;1&quot;&gt;&lt;hr size=&quot;1&quot;&gt;&lt;p style=&quot;margin: 0px ; margin-left: 4px&quot;&gt;+ draw(canvas:&amp;nbsp;Canvas,&amp;nbsp;evt:&amp;nbsp;PointerEvent&amp;nbsp;):&amp;nbsp;void&lt;/p&gt;" style="verticalAlign=top;align=left;overflow=fill;fontSize=12;fontFamily=Helvetica;html=1;" parent="WIyWlLk6GJQsqaUBKTNV-1" vertex="1">
          <mxGeometry x="350" y="110" width="370" height="80" as="geometry" />
        </mxCell>
        <mxCell id="TB5qrfISMN7NIype_BGl-0" value="Canvas" style="swimlane;fontStyle=0;childLayout=stackLayout;horizontal=1;startSize=26;fillColor=none;horizontalStack=0;resizeParent=1;resizeParentMax=0;resizeLast=0;collapsible=1;marginBottom=0;" parent="WIyWlLk6GJQsqaUBKTNV-1" vertex="1">
          <mxGeometry x="10" y="110" width="250" height="156" as="geometry" />
        </mxCell>
        <mxCell id="TB5qrfISMN7NIype_BGl-1" value="+ widthCanvas: number" style="text;strokeColor=none;fillColor=none;align=left;verticalAlign=top;spacingLeft=4;spacingRight=4;overflow=hidden;rotatable=0;points=[[0,0.5],[1,0.5]];portConstraint=eastwest;" parent="TB5qrfISMN7NIype_BGl-0" vertex="1">
          <mxGeometry y="26" width="250" height="26" as="geometry" />
        </mxCell>
        <mxCell id="TB5qrfISMN7NIype_BGl-2" value="+ heightCanvas: number" style="text;strokeColor=none;fillColor=none;align=left;verticalAlign=top;spacingLeft=4;spacingRight=4;overflow=hidden;rotatable=0;points=[[0,0.5],[1,0.5]];portConstraint=eastwest;" parent="TB5qrfISMN7NIype_BGl-0" vertex="1">
          <mxGeometry y="52" width="250" height="26" as="geometry" />
        </mxCell>
        <mxCell id="TB5qrfISMN7NIype_BGl-3" value="+ $canvas: HTMLCanvasElement&#xa;&#xa;" style="text;strokeColor=none;fillColor=none;align=left;verticalAlign=top;spacingLeft=4;spacingRight=4;overflow=hidden;rotatable=0;points=[[0,0.5],[1,0.5]];portConstraint=eastwest;" parent="TB5qrfISMN7NIype_BGl-0" vertex="1">
          <mxGeometry y="78" width="250" height="26" as="geometry" />
        </mxCell>
        <mxCell id="TB5qrfISMN7NIype_BGl-4" value="+ $subCanvas: HTMLCanvasElement" style="text;strokeColor=none;fillColor=none;align=left;verticalAlign=top;spacingLeft=4;spacingRight=4;overflow=hidden;rotatable=0;points=[[0,0.5],[1,0.5]];portConstraint=eastwest;" parent="TB5qrfISMN7NIype_BGl-0" vertex="1">
          <mxGeometry y="104" width="250" height="26" as="geometry" />
        </mxCell>
        <mxCell id="TB5qrfISMN7NIype_BGl-5" value="+ shapeInstrument: Shape" style="text;strokeColor=none;fillColor=none;align=left;verticalAlign=top;spacingLeft=4;spacingRight=4;overflow=hidden;rotatable=0;points=[[0,0.5],[1,0.5]];portConstraint=eastwest;" parent="TB5qrfISMN7NIype_BGl-0" vertex="1">
          <mxGeometry y="130" width="250" height="26" as="geometry" />
        </mxCell>
        <mxCell id="ZT8UK4m45mL8Ys1VgAxK-0" style="edgeStyle=orthogonalEdgeStyle;rounded=0;orthogonalLoop=1;jettySize=auto;html=1;exitX=1;exitY=0.5;exitDx=0;exitDy=0;entryX=0;entryY=0.25;entryDx=0;entryDy=0;endArrow=block;endFill=0;dashed=1;" edge="1" parent="WIyWlLk6GJQsqaUBKTNV-1" source="TB5qrfISMN7NIype_BGl-3" target="5NShUPz_J3u2J9EEHh_j-0">
          <mxGeometry relative="1" as="geometry" />
        </mxCell>
      </root>
    </mxGraphModel>
  </diagram>
  <diagram id="SMAEl4mHrTppEhJCCc_D" name="Page-2">
    <mxGraphModel dx="782" dy="696" grid="1" gridSize="10" guides="1" tooltips="1" connect="1" arrows="1" fold="1" page="1" pageScale="1" pageWidth="1169" pageHeight="827" math="0" shadow="0">
      <root>
        <mxCell id="eO0uGjNbasOog7Gtz0k_-0" />
        <mxCell id="eO0uGjNbasOog7Gtz0k_-1" parent="eO0uGjNbasOog7Gtz0k_-0" />
        <mxCell id="eO0uGjNbasOog7Gtz0k_-3" value="save as image" style="rounded=0;whiteSpace=wrap;html=1;comic=0;" parent="eO0uGjNbasOog7Gtz0k_-1" vertex="1">
          <mxGeometry x="40" y="80" width="80" height="40" as="geometry" />
        </mxCell>
        <mxCell id="eO0uGjNbasOog7Gtz0k_-6" value="load fon-image" style="rounded=0;whiteSpace=wrap;html=1;comic=0;" parent="eO0uGjNbasOog7Gtz0k_-1" vertex="1">
          <mxGeometry x="210" y="80" width="80" height="40" as="geometry" />
        </mxCell>
        <mxCell id="eO0uGjNbasOog7Gtz0k_-7" value="толщина линии" style="rounded=0;whiteSpace=wrap;html=1;comic=0;" parent="eO0uGjNbasOog7Gtz0k_-1" vertex="1">
          <mxGeometry x="300" y="80" width="80" height="40" as="geometry" />
        </mxCell>
        <mxCell id="eO0uGjNbasOog7Gtz0k_-8" value="цвет линии" style="rounded=0;whiteSpace=wrap;html=1;comic=0;" parent="eO0uGjNbasOog7Gtz0k_-1" vertex="1">
          <mxGeometry x="390" y="80" width="80" height="40" as="geometry" />
        </mxCell>
        <mxCell id="eO0uGjNbasOog7Gtz0k_-10" value="кисть" style="rounded=0;whiteSpace=wrap;html=1;comic=0;" parent="eO0uGjNbasOog7Gtz0k_-1" vertex="1">
          <mxGeometry x="490" y="80" width="60" height="20" as="geometry" />
        </mxCell>
        <mxCell id="eO0uGjNbasOog7Gtz0k_-11" value="ластик" style="rounded=0;whiteSpace=wrap;html=1;comic=0;" parent="eO0uGjNbasOog7Gtz0k_-1" vertex="1">
          <mxGeometry x="557" y="80" width="55" height="20" as="geometry" />
        </mxCell>
        <mxCell id="eO0uGjNbasOog7Gtz0k_-12" value="круг" style="rounded=0;whiteSpace=wrap;html=1;comic=0;" parent="eO0uGjNbasOog7Gtz0k_-1" vertex="1">
          <mxGeometry x="490" y="100" width="60" height="20" as="geometry" />
        </mxCell>
        <mxCell id="eO0uGjNbasOog7Gtz0k_-13" value="прямоуго" style="rounded=0;whiteSpace=wrap;html=1;comic=0;" parent="eO0uGjNbasOog7Gtz0k_-1" vertex="1">
          <mxGeometry x="557" y="100" width="55" height="20" as="geometry" />
        </mxCell>
        <mxCell id="eO0uGjNbasOog7Gtz0k_-18" value="приложение для рисования" style="rounded=0;whiteSpace=wrap;html=1;comic=0;" parent="eO0uGjNbasOog7Gtz0k_-1" vertex="1">
          <mxGeometry x="40" y="10" width="630" height="60" as="geometry" />
        </mxCell>
        <mxCell id="bxWVJNBGeqd2OR_dwQhC-0" value="прямая" style="rounded=0;whiteSpace=wrap;html=1;comic=0;" parent="eO0uGjNbasOog7Gtz0k_-1" vertex="1">
          <mxGeometry x="620" y="80" width="50" height="20" as="geometry" />
        </mxCell>
        <mxCell id="bxWVJNBGeqd2OR_dwQhC-2" value="очистить" style="rounded=0;whiteSpace=wrap;html=1;comic=0;" parent="eO0uGjNbasOog7Gtz0k_-1" vertex="1">
          <mxGeometry x="620" y="100" width="50" height="20" as="geometry" />
        </mxCell>
        <mxCell id="I1E-ALudcF4sGnOE_nd--1" value="save to buffer" style="rounded=0;whiteSpace=wrap;html=1;comic=0;" vertex="1" parent="eO0uGjNbasOog7Gtz0k_-1">
          <mxGeometry x="120" y="80" width="80" height="40" as="geometry" />
        </mxCell>
        <mxCell id="I1E-ALudcF4sGnOE_nd--3" value="canvas" style="rounded=0;whiteSpace=wrap;html=1;" vertex="1" parent="eO0uGjNbasOog7Gtz0k_-1">
          <mxGeometry x="40" y="130" width="630" height="390" as="geometry" />
        </mxCell>
        <mxCell id="I1E-ALudcF4sGnOE_nd--4" value="Actor" style="shape=umlActor;verticalLabelPosition=bottom;verticalAlign=top;html=1;outlineConnect=0;" vertex="1" parent="eO0uGjNbasOog7Gtz0k_-1">
          <mxGeometry x="100" y="190" width="30" height="60" as="geometry" />
        </mxCell>
        <mxCell id="I1E-ALudcF4sGnOE_nd--5" value="drawing" style="ellipse;shape=cloud;whiteSpace=wrap;html=1;" vertex="1" parent="eO0uGjNbasOog7Gtz0k_-1">
          <mxGeometry x="140" y="140" width="120" height="80" as="geometry" />
        </mxCell>
        <mxCell id="I1E-ALudcF4sGnOE_nd--6" value="" style="shape=tape;whiteSpace=wrap;html=1;" vertex="1" parent="eO0uGjNbasOog7Gtz0k_-1">
          <mxGeometry x="330" y="130" width="120" height="100" as="geometry" />
        </mxCell>
      </root>
    </mxGraphModel>
  </diagram>
</mxfile>
